<svg width="60" height="58" viewBox="0 0 60 58" fill="none" xmlns="http://www.w3.org/2000/svg">
<path d="M41.8822 23.78C43.0577 23.0067 44.0372 22.04 44.8209 20.88C43.8413 21.2667 42.6659 21.6533 41.4904 21.8467C42.6659 21.0733 43.6454 20.1067 44.0372 18.7533C42.8618 19.3333 41.6863 19.9133 40.315 20.1067C39.3354 18.9467 37.7681 18.3667 36.005 18.3667C32.8704 18.3667 30.1277 20.88 30.1277 24.1667C30.1277 24.5533 30.1277 25.1333 30.3236 25.52C25.4259 25.3267 21.3118 23.0067 18.3731 19.5267C17.7854 20.3 17.5895 21.2667 17.5895 22.4267C17.5895 24.36 18.569 26.1 20.1363 27.26C19.1568 27.26 18.3731 27.0667 17.5895 26.4867C17.5895 29.1933 19.5486 31.5133 22.2913 32.0933C21.8995 32.2867 21.3118 32.2867 20.724 32.2867C20.3322 32.2867 19.9404 32.2867 19.5486 32.0933C20.3322 34.4133 22.4872 35.96 25.034 36.1533C23.075 37.7 20.5281 38.6667 17.7854 38.6667C17.3936 38.6667 16.8059 38.6667 16.414 38.6667C18.9609 40.2133 22.0954 41.18 25.23 41.18C35.809 41.18 41.6863 32.48 41.6863 24.94C41.8822 24.1667 41.8822 23.9733 41.8822 23.78ZM29.9318 0C46.1922 0 59.3181 12.9533 59.3181 29C59.3181 45.0467 46.1922 58 29.9318 58C13.6713 58 0.54541 45.0467 0.54541 29C0.54541 12.9533 13.6713 0 29.9318 0Z" fill="white"/>
</svg>
