<svg width="60" height="58" viewBox="0 0 60 58" fill="none" xmlns="http://www.w3.org/2000/svg">
<path d="M12.0727 28.42C11.6808 33.2533 15.0113 38.0867 19.7131 39.8267C24.4149 41.5667 30.2922 40.4067 33.4267 36.3467C35.3858 33.8333 35.7777 30.5467 35.5817 27.4533C35.5817 27.4533 27.9413 27.4533 24.0231 27.4533C24.0231 28.8067 24.0231 30.16 24.0231 31.32C26.374 31.32 28.529 31.32 30.8799 31.32C29.9004 36.1533 23.0436 37.8933 19.3213 34.6067C15.599 31.7067 15.7949 25.7133 19.7131 23.0067C22.4558 20.88 26.374 21.46 29.1167 23.2C30.0963 22.2333 31.2718 21.2667 32.2513 20.1067C29.9004 18.3667 27.1577 17.2067 24.219 17.2067C17.9499 17.2067 12.2686 22.4267 12.0727 28.42ZM45.3772 23.2H41.459C41.459 24.5533 41.459 25.7133 41.459 27.0667C40.0877 27.0667 38.9122 27.0667 37.5408 27.0667V30.9333C38.9122 30.9333 40.0877 30.9333 41.459 30.9333C41.459 32.2867 41.459 33.4467 41.459 34.8H45.3772C45.3772 33.4467 45.3772 32.2867 45.3772 30.9333C46.7486 30.9333 47.924 30.9333 49.2954 30.9333V27.0667C47.924 27.0667 46.7486 27.0667 45.3772 27.0667C45.3772 25.7133 45.3772 24.5533 45.3772 23.2ZM29.7045 0C45.9649 0 59.0908 12.9533 59.0908 29C59.0908 45.0467 45.9649 58 29.7045 58C13.444 58 0.318115 45.0467 0.318115 29C0.318115 12.9533 13.444 0 29.7045 0Z" fill="white"/>
</svg>
