<svg width="59" height="58" viewBox="0 0 59 58" fill="none" xmlns="http://www.w3.org/2000/svg">
<path d="M19.094 13.5333C17.1349 13.5333 15.7635 14.6933 15.7635 16.4333C15.7635 18.1733 17.1349 19.3333 19.094 19.3333C21.249 19.3333 22.4245 18.1733 22.4245 16.4333C22.2285 14.6933 21.0531 13.5333 19.094 13.5333ZM16.3513 40.6H21.6408V21.8467H16.3513V40.6ZM36.7258 21.2667C33.5913 21.2667 31.4363 22.8133 30.6526 23.9733L30.2608 22.04H25.559V40.7933H30.8485V29.58C30.8485 29 30.8485 28.42 31.0445 28.2267C31.4363 27.26 32.8076 26.1 34.3749 26.1C36.5299 26.1 37.9013 27.6467 37.9013 30.16V40.9867H43.1908V29.3867C43.1908 23.5867 40.4481 21.2667 36.7258 21.2667ZM0.0908203 29C0.0908203 12.9533 13.2167 0 29.4772 0C45.7376 0 58.8635 12.9533 58.8635 29C58.8635 45.0467 45.7376 58 29.4772 58C13.2167 58 0.0908203 45.0467 0.0908203 29Z" fill="white"/>
</svg>
